<svg width="191" height="160" viewBox="0 0 191 160" fill="none" xmlns="http://www.w3.org/2000/svg">
<path d="M4.7478 155C33.5846 150.585 47.3883 145.987 62.7478 129.5V129.033C51.4953 140.956 58.7185 124.105 44.5 125.5C39.8059 125.961 34.1752 126.513 27.0961 127.597C26.8633 125.324 26.6266 123.173 26.4015 121.127C24.1881 101.009 10.2433 108.445 24.8845 92.8391C5.57967 112.943 2.18498 129.984 4.7478 155Z" fill="#22883E"/>
<path d="M62.7478 29C44.3253 11.2006 29.8147 7.82336 4.7478 5C8.79452 38.2344 15.1993 54.9664 34.4714 74.2071C19.1465 58.8529 30.6714 63.7763 28.1398 40.5788C27.7287 36.811 27.2755 32.6584 26.7119 28.0294C33.3359 28.7755 38.5594 28.8968 43 29C55.3635 29.2873 49.1936 15.9042 62.7478 29Z" fill="#22883E"/>
<path d="M62.7478 29C44.3253 11.2006 29.8147 7.82336 4.7478 5C8.79452 38.2344 15.1993 54.9664 34.4714 74.2071M62.7478 29V79.25M62.7478 29C49.1936 15.9042 55.3635 29.2873 43 29C38.5594 28.8968 33.3359 28.7755 26.7119 28.0294C27.2755 32.6584 27.7287 36.811 28.1398 40.5788C30.6714 63.7763 19.1465 58.8529 34.4714 74.2071M39.7478 79.25C33.559 84.3455 28.6901 88.7828 24.8845 92.8391M39.7478 79.25C33.9816 83.9975 29.0608 88.49 24.8845 92.8391M39.7478 79.25C37.8889 77.5423 36.1324 75.8654 34.4714 74.2071M39.7478 79.25C37.8208 77.4797 36.068 75.8068 34.4714 74.2071M62.7478 79.25H117.5M62.7478 79.25V129.033M63.2478 128.5C63.0799 128.68 62.9132 128.858 62.7478 129.033M62.7478 129.033V129.5C47.3883 145.987 33.5846 150.585 4.7478 155C2.18498 129.984 5.57967 112.943 24.8845 92.8391M62.7478 129.033C51.4953 140.956 58.7185 124.105 44.5 125.5C39.8059 125.961 34.1752 126.513 27.0961 127.597C26.8633 125.324 26.6266 123.173 26.4015 121.127C24.1881 101.009 10.2433 108.445 24.8845 92.8391M95.2478 129.5C133.378 140.251 152.057 138.179 183.748 129.5C167.386 105.219 156.273 93.612 130.248 79.25C157.717 64.6532 169.022 53.2703 183.748 29C146.737 20.0677 127.436 20.3107 95.2478 29" stroke="#33B457" stroke-width="8"/>
<path d="M89.0002 129H63.0002" stroke="#33B457" stroke-width="8"/>
</svg>
